<svg xmlns="http://www.w3.org/2000/svg" width="432.63" height="114.42" viewBox="0 0 432.63 114.42"><title>svg</title><path d="M26.87,47.28V78.63Q36.78,74.94,37,61.28H63.65a36.92,36.92,0,0,1-3.21,13,24.53,24.53,0,0,1-7.83,8.82,26.59,26.59,0,0,1,5.31,5.46,27.48,27.48,0,0,1,3.54,6.87,33.35,33.35,0,0,1,1.78,7.74,102.68,102.68,0,0,1,.41,10.45H37q0-12.07-2.45-17.87a13.84,13.84,0,0,0-7.72-7.87v25.74H0V47.28Z" fill="#15253b"></path><path d="M129.35,93.68v9.17q-8.84,11.57-25.4,11.57-13.65,0-22-7.59t-8.31-20q0-11.77,7.63-19.22t19.81-7.43a31.24,31.24,0,0,1,11.52,2.08,25.45,25.45,0,0,1,9.17,6.14,25.14,25.14,0,0,1,5.7,9.39,40.54,40.54,0,0,1,1.83,13H101.91a12.35,12.35,0,0,0,5,6.26,14.25,14.25,0,0,0,7.95,2.26Q123.87,99.37,129.35,93.68Zm-29-12H113A10.26,10.26,0,0,0,111,75.57a5.66,5.66,0,0,0-8.89-.09C100.91,76.89,100.3,79,100.3,81.68Z" fill="#15253b"></path><path d="M171.47,61.28v6.57a21.16,21.16,0,0,1,16.13-7q11.44,0,16.92,9a31.73,31.73,0,0,1,9-6.87,23.06,23.06,0,0,1,10.16-2.17q8.52,0,13.43,5.22T242,80.76v32.87H216.6V82.37a6.26,6.26,0,0,0-1.37-4.32,4.56,4.56,0,0,0-3.58-1.55,8.56,8.56,0,0,0-4.92,1.7v35.43H181.34V82.37a6.41,6.41,0,0,0-1.33-4.3,4.48,4.48,0,0,0-3.63-1.57,8.54,8.54,0,0,0-4.91,1.79v35.34H144.6V61.28Z" fill="#15253b"></path><path d="M258.77,61.28v52.35h26.87V61.28q-5.22,3-13.09,3Q264.07,64.28,258.77,61.28Z" fill="#15253b"></path><path d="M329.55,47.28V78.63q9.92-3.69,10.17-17.35h26.61a36.92,36.92,0,0,1-3.21,13,24.63,24.63,0,0,1-7.83,8.82,26.28,26.28,0,0,1,5.3,5.46,27.18,27.18,0,0,1,3.55,6.87,33.35,33.35,0,0,1,1.78,7.74,102.68,102.68,0,0,1,.41,10.45H339.72q0-12.07-2.45-17.87a13.84,13.84,0,0,0-7.72-7.87v25.74H302.68V47.28Z" fill="#15253b"></path><path d="M380,82.81V67.07a53,53,0,0,1,25.83-6.22q13.74,0,20.26,5.87t6.52,18v28.95H405.76v-3.91a21.69,21.69,0,0,1-13.08,4.35,13.81,13.81,0,0,1-10-3.89,13.14,13.14,0,0,1-4-9.81,13.8,13.8,0,0,1,5-11c3.31-2.82,7.62-4.24,13-4.24a34.83,34.83,0,0,1,9.17,1.22,6.64,6.64,0,0,0-2.8-5.69q-2.81-2.06-7.81-2.05A31.71,31.71,0,0,0,380,82.81Zm25.74,19.26V94.76a13.77,13.77,0,0,0-4.39-.82,5.81,5.81,0,0,0-3.91,1.26A4.12,4.12,0,0,0,396,98.5a4.62,4.62,0,0,0,1.59,3.57,5.74,5.74,0,0,0,4,1.43A6.21,6.21,0,0,0,405.76,102.07Z" fill="#15253b"></path><path d="M253,11.39c3.53-4.06,9.52-2.62,15.29-2.26,1.33.08,1.16,1,1,1.93-.62,4.89-1.2,9.78-1.89,14.66-.18,1.27,0,1.49,1.32,1.22a17.09,17.09,0,0,1,12.19,1.66,16.87,16.87,0,1,1-17.65,28.7c-7-4.64-9.46-15.37-5-22.42,1.73-2.72,1.72-2.71-1.36-3.48-4.33-1.07-8.64-2.19-13-3.24-1.23-.3-1.7-.68-1.15-2.09.86-2.19,1.4-4.5,2.11-6.76C246,15.82,249.21,14.38,253,11.39Zm14,21.92c-5.46,3.45-7.24,8.93-5,14.69,2.14,5.56,8.78,8.52,14.85,6.62,5.37-1.69,8.91-8.43,7.46-13.95a11.88,11.88,0,0,0-4.48-6.61c-.41-.32-1-.75-.49-1.31s.82.09,1.18.36A12.79,12.79,0,1,1,260.38,46a12.28,12.28,0,0,1,3.34-11.58c.61-.64,1-1-.31-1.44-1.77-.6-2.76,0-3.71,1.38a16.14,16.14,0,0,0,2,20.31,15.83,15.83,0,1,0,11.68-27.11,13.52,13.52,0,0,0-5.33.74c-1.42.51-1.18,1.75-1.22,2.74-.05,1.17.83.44,1.33.42.31,0,.54.06.63.36s-.1.51-.35.65Zm-3.52-2a25.6,25.6,0,0,0-3.43-6c-3.4-4.92-2.12-4.2-7-1.34l-.17.1c-.8.47-1.26.81,0,1.45C256.32,27.35,259.69,29.25,263.48,31.33Zm.89-1.3.58-.25c-.3-2.67-.6-5.35-.92-8-.19-1.51.19-4-.82-4.26-1.27-.34-2.58,1.63-4,2.46-.92.55-.9,1.21-.34,2C260.73,24.66,262.55,27.35,264.37,30ZM255.3,18.35c-.57-.56-.82-2-1.84-1.76A12.06,12.06,0,0,0,250,18.64c-.31.21.47,4.75.83,4.91,1.08.48,1.61-.7,2.47-.92a7.74,7.74,0,0,0,.95-.36C256.8,21.23,256.94,20.77,255.3,18.35Zm.66-.68c1.88,2.77,2.07,2.78,4.36.37a.93.93,0,0,1,.13-.15c.74-.69,2.09-1.37,2.08-2.05,0-1.07-1.57-1.23-2.43-1.85-1.77-1.27-2.73-1-4.73,1.06C254.13,16.33,255.86,16.87,256,17.67ZM249.05,25c.83-.25.81-.91.66-1.62-.17-.86-.33-1.72-.54-2.56-.14-.58.22-1.62-.81-1.49s-2.29-.19-2.78,1.17a7.8,7.8,0,0,0-.52,1.73c-.18,1.44-1.74,3.56-.91,4C245.55,27,247.42,25.73,249.05,25ZM268,10a47.33,47.33,0,0,1-6-.34c-1.75-.31-1.9,1-2.39,1.91-.59,1.06.56,1.08,1.09,1.44.78.53,1.57,1,2.36,1.57a1,1,0,0,0,1.45-.13A15.19,15.19,0,0,0,268,10Zm-8.1-.25c-4.28.29-12.09,5.67-13.26,9A44,44,0,0,0,259.87,9.79Zm.2,21.42.23-.51c-2.61-1.39-5.22-2.76-7.82-4.17a5.08,5.08,0,0,0-6.31,1.15Zm5.56-4.5.64,0q.92-7,1.82-13.93c-1.56.95-3.45,2.1-3.48,3.61A82.6,82.6,0,0,0,265.63,26.71Z" fill="#cd9a32"></path><path d="M260.1,0c.7,2.28-.29,3.81-.41,5.42a.43.43,0,0,1-.58.38.53.53,0,0,1-.34-.65C259.17,3.62,259.12,2,260.1,0Z" fill="#cd9a32"></path><path d="M249.39,8.8a8.6,8.6,0,0,1-3.24-4.69A11.33,11.33,0,0,1,249.39,8.8Z" fill="#cd9a32"></path><path d="M238,15.05l4.08,1.14c.39.11.86.24.73.76s-.52.3-.85.2c-1.46-.4-3.13-.2-4.35-1.26Z" fill="#cd9a32"></path><path d="M245.93,12.42a3.77,3.77,0,0,1-3.35-2.26A5,5,0,0,1,245.93,12.42Z" fill="#cd9a32"></path><path d="M254.1,7.3a4,4,0,0,1-.89-4C253.79,4.46,254.53,5.59,254.1,7.3Z" fill="#cd9a32"></path><path d="M276.71,32c-2.06-.16-3.6-.27-5.15-.41a.46.46,0,0,1-.43-.56.6.6,0,0,1,.41-.35C273.21,30.51,274.91,30.3,276.71,32Z" fill="#cd9a32"></path></svg>